<?xml version="1.0" standalone="no"?><!DOCTYPE svg PUBLIC "-//W3C//DTD SVG 1.1//EN" "http://www.w3.org/Graphics/SVG/1.1/DTD/svg11.dtd"><svg t="1759740825980" class="icon" viewBox="0 0 1024 1024" version="1.1" xmlns="http://www.w3.org/2000/svg" p-id="11313" xmlns:xlink="http://www.w3.org/1999/xlink" width="200" height="200"><path d="M417.047273 478.487273H141.963636c-12.8 0-23.272727-10.472727-23.272727-23.272728V180.130909c0-12.8 10.472727-23.272727 23.272727-23.272727h137.541819c12.8 0 23.272727 10.472727 23.272727 23.272727s-10.472727 23.272727-23.272727 23.272727H165.236364v228.538182h228.538181V180.130909c0-12.8 10.472727-23.272727 23.272728-23.272727s23.272727 10.472727 23.272727 23.272727v275.083636c0 12.8-10.472727 23.272727-23.272727 23.272728zM417.047273 880.407273H141.963636c-12.8 0-23.272727-10.472727-23.272727-23.272728V582.283636c0-12.8 10.472727-23.272727 23.272727-23.272727h275.083637c12.8 0 23.272727 10.472727 23.272727 23.272727v275.083637c0 12.8-10.472727 23.04-23.272727 23.04z m-251.810909-46.545455h228.538181v-228.538182H165.236364v228.538182zM840.145455 880.407273H565.061818c-12.8 0-23.272727-10.472727-23.272727-23.272728V582.283636c0-12.8 10.472727-23.272727 23.272727-23.272727H840.145455c12.8 0 23.272727 10.472727 23.272727 23.272727v275.083637c0 12.8-10.472727 23.04-23.272727 23.04z m-251.81091-46.545455h228.538182v-228.538182h-228.538182v228.538182zM702.603636 457.309091c-88.669091 0-160.814545-72.145455-160.814545-160.814546s72.145455-160.814545 160.814545-160.814545 160.814545 72.145455 160.814546 160.814545-72.145455 160.814545-160.814546 160.814546z m0-275.083636c-63.069091 0-114.269091 51.2-114.269091 114.26909s51.2 114.269091 114.269091 114.269091 114.269091-51.2 114.269091-114.269091-51.2-114.269091-114.269091-114.26909z" fill="#bfbfbf" p-id="11314"></path></svg>