<?xml version="1.0" standalone="no"?><!DOCTYPE svg PUBLIC "-//W3C//DTD SVG 1.1//EN" "http://www.w3.org/Graphics/SVG/1.1/DTD/svg11.dtd"><svg t="1759740745253" class="icon" viewBox="0 0 1024 1024" version="1.1" xmlns="http://www.w3.org/2000/svg" p-id="10238" xmlns:xlink="http://www.w3.org/1999/xlink" width="200" height="200"><path d="M719.1 957.7H304.5c-82.7 0-150.1-71.9-150.1-160.2V381.8c0-5.1 1.9-10 5.4-13.7L440.3 70.5c4.2-4.5 10.2-6.7 16.1-6.2 1.2-0.2 2.5-0.3 3.7-0.3H719c82.7 0 150.1 71.9 150.1 160.2v573.4c0 88.2-67.3 160.1-150 160.1zM194.4 401.8v395.7c0 66.3 49.4 120.2 110.1 120.2h414.6c60.7 0 110.1-53.9 110.1-120.2V224.1c0-66.3-49.4-120.2-110.1-120.2H474.9V253c0 82.1-67.3 148.8-150.1 148.8H194.4z m26.3-40h104.1c60.7 0 110.1-48.8 110.1-108.8V134.6L220.7 361.8z" fill="#bfbfbf" p-id="10239"></path><path d="M715.1 529.9H308.5c-11 0-20-9-20-20s9-20 20-20h406.6c11 0 20 9 20 20s-8.9 20-20 20zM715.1 676.5H308.5c-11 0-20-9-20-20s9-20 20-20h406.6c11 0 20 9 20 20s-8.9 20-20 20z" fill="#bfbfbf" p-id="10240"></path></svg>